<svg width="31" height="30" viewBox="0 0 31 30" fill="none" xmlns="http://www.w3.org/2000/svg">
<g clip-path="url(#clip0_462_304)">
<g clip-path="url(#clip1_462_304)">
<path d="M9.55059 22.5523L7.74005 20.7417C7.242 20.2437 7.06622 19.523 7.28888 18.855C7.46466 18.3335 7.69903 17.6538 7.98028 16.8745H1.78106C1.27716 16.8745 0.808406 16.605 0.556453 16.1656C0.3045 15.7261 0.31036 15.187 0.568172 14.7535L3.64434 9.5679C4.40606 8.2847 5.78302 7.49955 7.2713 7.49955H12.0936C12.2342 7.26517 12.3748 7.04837 12.5154 6.83744C17.3143 -0.24069 24.4627 -0.475064 28.7283 0.310092C29.408 0.433139 29.9354 0.966342 30.0643 1.64603C30.8494 5.91751 30.6092 13.0601 23.5369 17.8589C23.3318 17.9995 23.1092 18.1402 22.8748 18.2808V23.1031C22.8748 24.5913 22.0897 25.9742 20.8065 26.73L15.6209 29.8062C15.1873 30.064 14.6483 30.0699 14.2088 29.8179C13.7693 29.566 13.4998 29.1031 13.4998 28.5933V22.312C12.6736 22.5992 11.9529 22.8335 11.408 23.0093C10.7518 23.2202 10.0369 23.0386 9.54473 22.5523H9.55059ZM22.8748 9.8433C23.4964 9.8433 24.0926 9.59636 24.5321 9.15683C24.9716 8.71729 25.2186 8.12115 25.2186 7.49955C25.2186 6.87794 24.9716 6.2818 24.5321 5.84226C24.0926 5.40273 23.4964 5.1558 22.8748 5.1558C22.2532 5.1558 21.6571 5.40273 21.2175 5.84226C20.778 6.2818 20.5311 6.87794 20.5311 7.49955C20.5311 8.12115 20.778 8.71729 21.2175 9.15683C21.6571 9.59636 22.2532 9.8433 22.8748 9.8433Z" fill="#1F2937"/>
</g>
</g>
<defs>
<clipPath id="clip0_462_304">
<rect width="30" height="30" fill="white" transform="translate(0.375)"/>
</clipPath>
<clipPath id="clip1_462_304">
<path d="M0.375 0H30.375V30H0.375V0Z" fill="white"/>
</clipPath>
</defs>
</svg>
