<svg width="33" height="32" viewBox="0 0 33 32" fill="none" xmlns="http://www.w3.org/2000/svg">
<g clip-path="url(#clip0_466_473)">
<mask id="mask0_466_473" style="mask-type:luminance" maskUnits="userSpaceOnUse" x="0" y="0" width="33" height="32">
<path d="M32.2969 0H0.296875V32H32.2969V0Z" fill="white"/>
</mask>
<g mask="url(#mask0_466_473)">
<path d="M24.1133 28.576C20.4729 39.4751 10.7628 42.8365 5.6289 29.3026C4.92065 27.442 6.76652 26.7521 8.05826 25.9301C8.94267 25.3687 9.40872 24.8843 9.35368 24.3815C9.0968 22.0182 7.99955 15.4347 7.99955 15.4347L7.88946 15.2219C7.88946 15.2219 7.91514 15.1631 7.80872 15.2659C7.69863 15.376 7.44542 16.5209 6.45092 16.5209C5.55184 16.5209 4.64542 16.1209 4.21239 13.354C4.04725 12.3521 4.13533 9.72462 5.25092 9.24755C5.70964 9.05306 6.13166 8.98333 6.54267 9.21819C6.95735 9.45306 6.0656 8.41086 10.6528 4.59434C13.6326 2.10627 18.3408 1.74297 20.2417 2.16498C22.1427 2.587 24.0399 3.51544 24.8803 5.48608C25.9005 7.87141 23.9298 9.68058 24.3665 15.1191C24.2858 17.0861 24.3959 21.4017 18.9867 22.8476C17.9592 23.1228 18.2784 24.6237 19.8197 24.9907C22.2784 25.7613 24.1133 27.6439 24.1133 28.5833" fill="white"/>
<path fill-rule="evenodd" clip-rule="evenodd" d="M24.1134 11.6398L24.117 11.5884C24.2675 10.2527 24.418 8.95725 25.1115 7.79395C25.3501 7.95541 25.3207 8.16092 25.2473 8.35174C24.517 10.2306 24.5868 12.1829 24.6528 14.1352L24.6675 14.649C24.7446 17.0857 24.1354 19.3022 22.5134 21.1628C21.9482 21.8086 21.1996 22.2563 20.44 22.6417C19.6546 23.0453 19.4895 23.3793 19.7354 24.2416L19.7647 24.3371C19.8161 24.4802 19.8675 24.627 19.728 24.7701C19.5629 24.9389 19.3794 24.8912 19.1849 24.8361L19.1629 24.8325C17.3434 24.323 15.6373 23.4725 14.1354 22.3261C13.9152 22.1646 13.7391 21.9481 13.5666 21.7352L13.5556 21.7206C13.4638 21.6105 13.4455 21.4343 13.5739 21.3389C13.695 21.2472 13.7868 21.3205 13.8932 21.405L13.9299 21.438C14.7312 22.0882 15.7037 22.4922 16.7299 22.6013C17.2216 22.6527 17.706 22.6343 18.1978 22.616C18.4693 22.605 18.7409 22.5939 19.0161 22.5976C19.3904 22.5976 19.7024 22.4251 19.9959 22.26L20.0987 22.2013C21.1189 21.6325 22.0913 20.9976 22.7482 19.9738C23.3391 19.0563 23.6987 18.0582 23.9079 17.005C24.1721 15.6802 24.1501 14.3371 24.128 12.9756C24.117 12.5352 24.1097 12.0875 24.1097 11.6398H24.1134ZM5.63997 8.87284C6.44364 8.81046 6.88768 9.28385 7.26566 9.83798C7.71364 10.515 7.9953 11.2883 8.08768 12.0949C8.10602 12.2306 8.12437 12.3738 8.04364 12.5095C7.8785 12.5316 7.86382 12.3994 7.86015 12.304C7.8418 11.5444 7.50419 10.8839 7.16657 10.2453C6.92437 9.78661 6.57208 9.34257 6.01428 9.23248C5.38309 9.10404 4.80327 9.67284 4.51703 10.4141C3.98492 11.7939 4.07667 13.1517 4.56841 14.4875C4.78125 15.071 5.04914 15.6655 5.58859 16.0728C6.13171 16.4875 6.78859 16.4141 7.18859 15.8637L7.26199 15.7719C7.33538 15.6765 7.40878 15.5848 7.44547 15.4783C7.52254 15.2655 7.64364 15.0673 7.86015 15.0967C8.10969 15.1334 8.15373 15.4013 8.17942 15.6105C8.40707 17.5329 8.67625 19.4501 8.98676 21.3609L9.20327 22.7848C9.29868 23.4123 9.40878 24.315 9.33538 24.6967C9.33065 24.7235 9.32697 24.7504 9.32437 24.7774C9.30969 24.8802 9.30235 24.9609 9.17024 24.9793C8.99043 25.0086 8.91336 24.9059 8.88768 24.7444C8.80327 24.1206 8.77758 23.8783 8.74089 22.9242C8.70786 21.9994 8.53538 21.0894 8.35923 20.1756L8.17575 19.1848C7.98492 18.0545 7.79777 16.9095 7.77942 15.6251L7.70602 15.7352C7.42712 16.1499 7.20327 16.4875 6.80694 16.616C6.51274 16.7287 6.19033 16.745 5.88625 16.6625C5.58217 16.5801 5.31216 16.4031 5.1152 16.1572C4.59809 15.5732 4.23483 14.8694 4.05832 14.1095C3.75006 12.8618 3.69501 11.6472 4.09135 10.4178C4.28217 9.82697 4.96107 8.77743 5.63997 8.87651V8.87284ZM6.90969 13.5517C7.07116 13.6692 7.21795 13.7719 7.35006 13.3536C7.30969 11.805 6.81061 10.8141 6.0363 10.7738C6.44731 11.3095 6.84364 11.8306 6.88034 12.5536C6.72763 12.4756 6.59366 12.3654 6.48768 12.2306C6.41428 12.1499 6.34089 12.0692 6.24914 12.0105L6.13905 11.9224C5.9629 11.7903 5.78309 11.6508 5.48584 11.7572C5.62529 11.9701 5.81612 12.1242 6.01061 12.271C6.23079 12.4435 6.45098 12.6123 6.58309 12.8765C6.1941 13.1591 6.02529 13.5261 6.22712 13.9738C6.40327 14.3591 6.66382 14.6783 7.17758 14.7004C7.15557 14.4692 7.00511 14.3004 6.85465 14.1352C6.67116 13.9371 6.49868 13.7462 6.57942 13.4527C6.69685 13.3976 6.80694 13.4783 6.90969 13.5517Z" fill="black"/>
<path d="M39.0268 48.4037L-8.81543 48.2753C-8.81543 48.2753 -7.10167 37.1157 -2.52552 31.945C-0.474144 29.6294 1.23228 27.3432 5.81576 25.6991C6.60108 25.4166 7.76439 22.4698 8.38824 22.1615C8.97907 21.8679 8.59007 24.0771 9.13686 24.5248C10.2518 25.4552 11.4289 26.3085 12.6598 27.079C14.8213 28.4441 15.8158 31.2955 15.8158 31.2955C15.8158 31.2955 16.7846 28.5468 17.5919 27.1964C18.1607 26.2423 20.0616 23.4386 20.0616 23.4386C20.0616 23.4386 23.5369 24.5248 24.8249 25.4826C25.6066 26.0624 25.1479 25.934 28.6928 27.9597C31.7717 29.7175 34.7919 34.5322 36.3993 38.5285C38.1093 42.778 39.0268 48.4001 39.0268 48.4001V48.4037Z" fill="white"/>
<path fill-rule="evenodd" clip-rule="evenodd" d="M38.792 48.4033C38.5462 47.4124 38.3333 46.4216 38.1205 45.4271C38.0287 44.9868 37.937 44.5464 37.8379 44.1134C37.537 42.7556 37.1407 41.4345 36.704 40.1207C36.2832 38.8426 35.768 37.5976 35.1627 36.3959C34.5614 35.1689 33.8747 33.9855 33.1076 32.8546C32.0067 31.2657 30.8104 29.7537 29.2251 28.6198C28.0728 27.7978 26.7957 27.1812 25.5223 26.5684C25.0709 26.3482 24.6086 26.451 24.1572 26.5501L24.0104 26.5868C23.6471 26.6601 23.2911 26.7409 22.9315 26.8216C22.5006 26.9198 22.0687 27.014 21.6361 27.1042C21.4489 27.1409 21.3792 27.251 21.3242 27.4051L21.104 28.0473C20.9535 28.495 20.7994 28.9427 20.6599 29.3941C20.5645 29.695 20.4031 29.8271 20.0838 29.8198C19.8122 29.8161 19.5407 29.8198 19.2691 29.8271C18.9755 29.8308 18.6856 29.8381 18.3957 29.8308C17.882 29.8198 17.6287 30.0033 17.6911 30.6198C17.7609 31.2803 17.7572 31.9446 17.7572 32.6124C17.7572 33.0051 17.7572 33.3978 17.7682 33.7941C17.8049 34.8033 17.8049 35.8235 17.7865 36.829C17.7498 38.7115 17.7498 40.5941 17.7498 42.4803C17.7535 44.4326 17.7572 46.3886 17.7131 48.3592C17.5721 48.4005 17.4225 48.4031 17.2801 48.3666C17.2324 46.3813 17.2104 44.429 17.2214 42.4767C17.2287 41.3097 17.2214 40.139 17.2177 38.9684C17.2031 36.6235 17.192 34.2785 17.2838 31.9335C17.2911 31.8051 17.2471 31.6877 17.104 31.684C17.0203 31.7776 16.9359 31.8706 16.8508 31.9629C16.381 32.4767 15.9187 32.9831 15.6985 33.7207C15.3939 33.3684 15.2691 32.9574 15.1443 32.5647C15.0086 32.128 14.8764 31.7097 14.5205 31.3941C14.4471 31.6069 14.4471 31.8014 14.4471 31.9996V33.2106L14.4544 35.7427L14.4508 38.84C14.4471 41.0785 14.4434 43.3134 14.4508 45.5482C14.4544 45.8198 14.4508 46.0913 14.4398 46.3592C14.4251 47.0418 14.4067 47.7244 14.5131 48.3996H13.992C13.9439 47.636 13.9207 46.8711 13.9223 46.106V31.4638C13.9223 30.5831 13.6398 30.3335 12.7994 30.106C11.4049 29.739 10.0031 29.339 8.93149 28.2822C8.53516 27.8932 8.10948 28.0877 7.75718 28.2455L7.71315 28.2675C7.39755 28.4143 7.07094 28.5207 6.74434 28.6271C6.30397 28.7739 5.86361 28.9207 5.45627 29.1519C5.37186 29.1959 5.2948 29.2473 5.21406 29.2987C5.06125 29.4018 4.89906 29.4902 4.72966 29.5629L4.64893 29.5996C4.53883 29.651 4.43241 29.6987 4.30764 29.5812C4.16819 29.4565 4.17186 29.3244 4.23425 29.1592L4.44342 28.5317C4.62691 27.9739 4.81039 27.4198 5.0526 26.8803L5.08929 26.8069C5.14067 26.7225 5.18838 26.6381 5.14067 26.5244C4.99388 26.4253 4.8581 26.4987 4.737 26.5647L4.67095 26.6014L4.59021 26.6381L4.51682 26.6748C2.96085 27.4565 1.40489 28.2381 0.120486 29.4638C-0.795349 30.323 -1.64201 31.2531 -2.41162 32.2455C-3.89029 34.2097 -5.09634 36.3651 -5.99694 38.6528C-6.863 40.8106 -7.61162 43.0198 -7.98961 45.3317C-8.063 45.7574 -8.12906 46.1831 -8.19878 46.6124L-8.48869 48.3629C-8.69052 48.3996 -8.88502 48.3996 -9.11621 48.3996C-8.9474 47.1886 -8.75291 45.9776 -8.52172 44.7702C-8.43731 44.3335 -8.32722 43.9042 -8.21346 43.4748C-8.1474 43.2106 -8.07768 42.9501 -8.01896 42.6858C-7.81084 41.8594 -7.56223 41.0438 -7.27401 40.2418L-7.23731 40.1427C-6.47465 37.8383 -5.43982 35.6331 -4.15474 33.5739C-3.53472 32.5864 -2.83516 31.6512 -2.063 30.7776C-0.668505 29.1886 0.872779 27.7684 2.80672 26.8767C3.85627 26.3923 4.83241 25.8124 5.80122 25.1959C6.07645 25.0198 6.20489 24.7666 6.337 24.5134C6.38838 24.4216 6.43608 24.3262 6.4948 24.2345C7.03425 23.3721 7.59571 22.5317 8.44342 21.9299L8.50214 21.8858C8.60856 21.8014 8.71131 21.7244 8.8581 21.8124C8.99021 21.8858 8.98287 21.9996 8.9792 22.1207V22.2235C9.00122 22.8326 9.0526 23.4381 9.10397 24.0436C9.12232 24.2381 9.20305 24.4106 9.39755 24.4987C10.2196 24.8767 10.9205 25.4271 11.6214 25.9812C12.0434 26.3115 12.4654 26.6418 12.9131 26.9354C13.9927 27.6208 14.8874 28.5609 15.5187 29.673C15.592 29.8051 15.6471 29.9446 15.7095 30.106L15.8049 30.3482C16.1462 28.9721 16.8801 27.8455 17.6141 26.7262L18.0434 26.0657C18.1168 25.9482 18.1755 25.8235 18.2342 25.6987C18.315 25.5299 18.3957 25.3611 18.5205 25.2069C18.6108 25.097 18.6671 24.9632 18.6828 24.8219C18.6984 24.6805 18.6726 24.5376 18.6086 24.4106C18.5278 24.2381 18.4838 24.0583 18.5535 23.8712C18.8654 23.7757 19.0306 23.9556 19.2067 24.1427L19.2434 24.1794C19.5737 23.9666 19.537 23.6913 19.3645 23.3978C19.3058 23.295 19.2544 23.1959 19.3425 23.0968C19.4269 23.0051 19.5407 23.0161 19.6508 23.0491C21.0122 23.4418 22.3664 23.8565 23.6214 24.539C23.7939 24.6345 23.9737 24.7225 24.1535 24.8069C24.6416 25.0418 25.1297 25.2767 25.4856 25.6693C26.0508 26.2932 26.7737 26.6308 27.4966 26.9684C27.9297 27.1739 28.359 27.3721 28.759 27.6363C29.6563 28.1962 30.4862 28.8574 31.2324 29.6069C32.0764 30.4987 32.8654 31.4418 33.5517 32.4546C34.1535 33.3354 34.726 34.2381 35.2251 35.1886C35.9048 36.483 36.4934 37.8232 36.9865 39.1996C37.4453 40.473 37.8379 41.7647 38.1865 43.0712C38.4361 44.0179 38.5975 44.9794 38.7553 45.9446C38.8911 46.7519 39.0232 47.5592 39.2104 48.3666C39.093 48.4033 38.9645 48.4033 38.792 48.4033ZM14.8544 29.5115C14.0071 28.4962 13.014 27.612 11.9076 26.8877C11.5764 26.669 11.2589 26.43 10.9572 26.1721C10.5168 25.8124 10.0764 25.4491 9.55535 25.2106C8.93883 24.9317 8.60856 24.5354 8.58654 23.8712V23.7831C8.58287 23.64 8.5792 23.4968 8.56085 23.3574C8.5315 23.0785 8.20489 22.9317 8.03241 23.1409C7.9737 23.2143 7.90397 23.273 7.83792 23.3354C7.74122 23.415 7.65601 23.5076 7.58471 23.6106C6.74067 24.9537 5.90397 26.2968 5.2948 27.7684C5.21406 27.9666 5.15902 28.2271 5.32783 28.3886C5.4636 28.5207 5.63608 28.451 5.80489 28.3812C5.83405 28.3686 5.86341 28.3563 5.89296 28.3446L6.60856 28.073C7.08929 27.8822 7.5737 27.695 8.06911 27.5446C8.59388 27.3868 8.99388 27.4785 9.36452 27.8932C9.75701 28.3109 10.237 28.6367 10.77 28.8473C11.3535 29.1042 11.9517 29.2987 12.5498 29.4968C13.0709 29.6693 13.592 29.8418 14.1021 30.051C14.7297 30.3079 15.3131 30.6418 15.3058 31.4638C15.3058 31.5923 15.3352 31.7207 15.548 31.7023C15.6544 31.4088 15.6544 31.1152 15.5076 30.8216L15.3168 30.4326C15.17 30.139 15.0232 29.8381 14.8544 29.5115ZM21.5076 24.1941L21.8379 24.3115L23.4709 25.0638C23.767 25.1982 24.0631 25.3328 24.359 25.4675C24.4764 25.5225 24.6049 25.5776 24.6049 25.728C24.6049 25.8895 24.4764 25.9115 24.359 25.9335L24.293 25.9482C24.1153 25.9909 23.9379 26.035 23.7609 26.0803C23.3058 26.1941 22.8508 26.3079 22.3847 26.3776C21.4086 26.5244 20.8801 26.917 20.6122 27.8565C20.5792 27.9739 20.5388 28.0913 20.4948 28.2051C20.4361 28.3702 20.381 28.5354 20.348 28.6968C20.2563 29.1372 19.9737 29.1812 19.6324 29.2106L18.9829 29.284C18.6269 29.3207 18.2709 29.3647 17.9113 29.3868C17.6177 29.4051 17.4489 29.5556 17.3388 29.7904C17.2544 29.9666 17.159 30.1354 17.0673 30.3042C16.8911 30.6235 16.7113 30.9427 16.6049 31.295C16.5535 31.4565 16.4801 31.6987 16.1755 31.6913C16.2489 30.8106 16.4691 29.9556 16.8177 29.1482C17.0563 28.5978 17.3902 28.1097 17.7242 27.6253C18.0031 27.2143 18.282 26.8033 18.5058 26.3629C18.9168 25.5372 19.5187 24.8803 20.1278 24.2235L20.3186 24.0143C20.4471 23.8712 20.5352 23.8308 20.7076 23.8968C20.9755 24.0069 21.2434 24.1024 21.515 24.1978L21.5076 24.1941Z" fill="black"/>
<path fill-rule="evenodd" clip-rule="evenodd" d="M24.2966 34.5462C24.0837 33.2471 24.1131 32.0141 24.7112 30.7627C25.7791 31.9664 25.7534 33.3682 25.7314 34.737L25.7241 35.3132C25.9076 35.3829 26.0066 35.3168 26.0947 35.2581L26.1828 35.2067C26.6415 35.0049 26.781 35.0893 26.858 35.5994C26.9975 36.5242 27.0048 37.4599 27.0122 38.3921L27.0158 38.7957C27.0158 39.0489 26.88 39.2324 26.7039 39.3499C26.2323 39.6996 25.8059 40.1064 25.4342 40.5609C25.192 40.8287 24.9498 41.1003 24.6855 41.3462C24.3222 41.6765 23.7057 41.7865 23.3057 41.482L22.9204 41.1921C22.3406 40.759 21.7644 40.3297 21.214 39.8563C20.9482 39.6512 20.745 39.3758 20.6277 39.0612C20.5103 38.7467 20.4833 38.4056 20.5498 38.0765C20.6122 37.6948 20.6452 37.3058 20.6782 36.9132C20.7076 36.6049 20.7333 36.2966 20.7736 35.9884C20.8764 35.2288 21.0195 35.1407 21.7094 35.4416C21.7718 35.4673 21.8342 35.4856 21.8966 35.5003C22.0617 35.5443 22.2342 35.5921 22.3846 35.7939L22.458 35.2434C22.5167 34.8031 22.5718 34.3957 22.5681 33.981V33.959C22.5681 33.9003 22.5681 33.8269 22.5388 33.8049C21.8782 33.3572 21.9993 32.77 22.2929 32.2012L22.3296 32.1278C22.5459 31.7705 22.694 31.376 22.7663 30.9645C22.7663 30.9205 22.8066 30.8801 22.8397 30.8398L22.8837 30.7884L22.9388 30.7994L22.9938 30.8141C23.0488 31.1957 23.2507 31.5003 23.4489 31.8086C23.6177 32.0691 23.7865 32.3297 23.8709 32.6343C23.9663 32.9976 23.9076 33.3021 23.647 33.5333C23.3901 33.7645 23.3534 34.0324 23.3901 34.3407L23.4158 34.5609C23.4378 34.7333 23.4599 34.9095 23.4672 35.0856C23.5002 35.7352 23.5993 35.8159 24.3076 35.6875C24.3773 35.3205 24.3553 34.9535 24.2966 34.5462ZM25.3718 39.7572C25.4085 39.7205 25.4525 39.6875 25.4929 39.6544C25.5799 39.5764 25.6718 39.5041 25.7681 39.4379C26.2819 39.1076 26.5314 38.682 26.4433 38.0324C26.3956 37.6765 26.4066 37.3168 26.4066 36.9535C26.414 36.7664 26.414 36.5792 26.4103 36.3921V36.304C26.4103 36.1352 26.4103 35.9627 26.2635 35.8269C26.0947 35.8636 25.9369 35.937 25.7828 36.0104C25.5626 36.1095 25.3424 36.2086 25.1039 36.2086C24.8323 36.2086 24.5608 36.2159 24.2892 36.2269C23.4232 36.2563 22.5571 36.2893 21.7241 35.9407C21.4378 35.8196 21.3241 35.9113 21.3094 36.2122C21.2727 36.9462 21.181 37.6728 21.0488 38.3921L21.0452 38.4067C21.0011 38.6379 20.9534 38.9095 21.1773 39.0966C21.9711 39.7471 22.7687 40.393 23.57 41.0343C23.8562 41.2691 24.1498 41.2177 24.3443 40.9388C24.5 40.7312 24.6705 40.535 24.8544 40.3517C25.0268 40.1682 25.2066 39.9774 25.3681 39.7572H25.3718ZM24.6268 32.8691C24.6709 32.8911 24.7186 32.9168 24.7663 32.8985L25.2066 32.8434C24.9131 33.1443 24.7333 33.148 24.4323 32.8728C24.5021 32.8031 24.5644 32.8361 24.6268 32.8691Z" fill="black"/>
<path d="M24.9389 1.82716C25.4894 3.28771 25.9958 4.38863 25.9004 5.92624C25.8637 6.49138 25.4527 7.38312 25.3132 7.92624C25.1187 8.67487 24.7114 9.36111 24.6637 10.1538C24.6563 10.2528 24.5829 10.3189 24.4141 10.3519C24.1279 9.97762 24.0912 9.50056 24.0765 9.06019C24.0325 7.68404 23.9664 6.31523 23.6582 4.97212C23.5701 4.59413 23.427 4.2345 23.2765 3.77211C23.1407 5.01982 23.1407 5.01248 22.0068 5.03083C19.9664 5.06753 17.9334 5.18863 15.915 5.48221C15.3389 5.56661 15.2912 5.52991 14.8949 4.7923C14.4912 5.06386 14.5022 5.54826 14.3004 5.91523C13.6875 7.04918 12.8985 8.01065 11.7316 8.62716C11.3279 8.84 10.5059 8.81065 9.57376 8.56478C9.22514 9.6767 8.3811 10.6418 8.67835 11.9483C8.7294 12.1624 8.73285 12.3851 8.68847 12.6006C8.64409 12.8162 8.55294 13.0194 8.42147 13.196C8.28202 13.3941 8.12789 13.4272 7.93707 13.3684C7.74257 13.3097 7.83431 13.1519 7.83798 13.0162C7.85633 11.8198 7.56642 10.6859 6.88752 9.70239C6.26367 8.7923 4.79211 9.01982 4.32239 10.0473C4.23798 10.2382 4.19762 10.4657 3.90037 10.6492C3.84532 9.97762 3.83431 9.36478 3.90404 8.75927C4.04452 7.34914 4.3525 5.96076 4.82147 4.62349C5.51132 2.67879 6.72087 0.960302 8.31872 -0.345316C10.0191 -1.71622 12.0881 -2.55151 14.2637 -2.74532C14.704 -2.79302 15.1407 -2.87743 15.5811 -2.92146C17.127 -3.07076 18.6867 -2.87265 20.1462 -2.34165C22.1206 -1.6444 23.8233 -0.572839 24.715 1.42716C24.7701 1.5556 24.8508 1.67303 24.9389 1.82716ZM7.47835 14.7923C7.62514 14.7519 7.72789 14.7593 7.77193 14.8987C8.08752 15.7868 8.1022 16.7116 8.05817 17.6327C8.03982 17.985 7.45633 18.4106 6.96826 18.4767C6.5022 18.5354 6.06917 18.473 5.79394 18.0363C5.64716 17.8051 5.75725 17.5593 5.84165 17.284C5.31688 17.2987 4.86184 17.5042 4.39211 17.284C3.76826 16.9941 3.70587 16.7189 4.20128 16.2565L4.32973 16.0987C4.10954 15.8198 3.74991 15.7795 3.52239 15.5299C3.26917 15.262 3.23248 15.0088 3.43798 14.7409C3.70954 14.3923 4.14257 14.3262 4.43615 14.5574C4.54991 14.6382 4.64532 14.7483 4.71138 14.873C4.84946 15.1494 5.06308 15.3809 5.32746 15.5407C5.59183 15.7005 5.8961 15.782 6.20495 15.7758C6.87284 15.7941 7.24349 15.3978 7.47835 14.7923Z" fill="black"/>
<path d="M16.3701 19.1113C16.282 19.7609 16.9609 20.304 17.559 20.0655C17.4013 19.4856 16.7957 19.4269 16.3701 19.1113Z" fill="white"/>
<path fill-rule="evenodd" clip-rule="evenodd" d="M15.9776 19.735C16.4327 20.5937 17.2987 20.8323 18.2418 20.3332C18.6272 20.0983 18.7886 19.724 18.9281 19.3754C18.9879 19.2331 19.0141 19.079 19.0046 18.9249C18.995 18.7709 18.95 18.6211 18.873 18.4873C18.3593 17.5405 17.7281 17.5148 16.9684 17.658C16.1428 17.8158 15.5813 18.9937 15.9776 19.735ZM17.5593 20.0653C16.9611 20.3038 16.2822 19.7607 16.3703 19.1112C16.5061 19.2103 16.6565 19.2837 16.807 19.3571C17.1336 19.5148 17.4528 19.669 17.5593 20.0653Z" fill="black"/>
<path d="M15.783 17.3203C16.0839 17.4561 16.0656 17.6616 15.9372 17.8708C15.8417 18.0359 15.6986 18.135 15.5078 18.0176C15.3316 17.9075 15.372 17.757 15.4711 17.6139C15.5518 17.5038 15.5812 17.346 15.783 17.3203Z" fill="black"/>
<path d="M19.027 15.6546C18.8435 15.6619 18.7078 15.6399 18.5867 15.5482C18.4839 15.4748 18.4692 15.372 18.4913 15.2583C18.5096 15.1372 18.6087 15.1188 18.7041 15.1262C19.2215 15.1518 19.7316 15.1078 20.2124 14.8913C20.3298 14.8362 20.4325 14.884 20.4949 14.9867C20.5573 15.1005 20.5683 15.2179 20.4656 15.3317C20.2821 15.5445 20.0546 15.6619 19.7683 15.6546H19.0307H19.027Z" fill="black"/>
<path d="M22.0803 13.0272C21.9261 12.6786 21.717 12.4694 21.3537 12.4511C21.1335 12.4401 21.0968 12.2639 21.0271 12.0914C21.1005 12.0364 21.1555 11.9557 21.2216 11.952C21.9959 11.8896 22.7775 11.8859 23.5518 11.9483C23.772 11.963 23.8931 12.2419 23.6693 12.33C23.3023 12.4768 23.2106 12.8144 22.9904 13.0566C22.6895 13.3868 22.4326 13.3905 22.0803 13.0272ZM15.0711 11.941C15.5188 11.9667 15.9188 11.9777 16.3188 12.0144C16.4509 12.0254 16.6124 12.0804 16.6124 12.2602C16.6124 12.4657 16.4436 12.4511 16.3078 12.4474C16.0766 12.4474 15.9518 12.5465 15.8491 12.763C15.7243 13.0346 15.5959 13.3245 15.1885 13.3061C14.8032 13.2878 14.6344 13.0419 14.5243 12.7483C14.4436 12.5391 14.3408 12.4401 14.1206 12.4474C13.9959 12.4511 13.8601 12.4401 13.8454 12.2676C13.8307 12.0841 13.9555 12.0474 14.1023 12.0034C14.418 11.9192 14.7472 11.8981 15.0711 11.941Z" fill="black"/>
<path d="M17.5149 9.69467C17.3094 10.3112 17.2727 10.2598 16.6708 10.1204C15.7094 9.90018 14.7369 9.41577 13.7241 9.96256C13.6507 10.0029 13.5406 9.99926 13.4452 9.99192C13.3131 9.98458 13.1442 10.0396 13.0745 9.87082C12.9975 9.68733 13.1296 9.56623 13.269 9.49284C13.992 9.12587 14.6452 8.6011 15.5589 8.69651C16.0286 8.74421 16.5131 8.59376 17.0011 8.60843C17.691 8.63412 17.8231 8.81761 17.5883 9.4855L17.5149 9.69834V9.69467ZM23.6617 8.90935C24.014 9.15155 24.1204 9.52587 24.3332 9.82678C24.3731 9.87672 24.393 9.93973 24.3889 10.0035C24.3849 10.0673 24.3571 10.1273 24.3112 10.1717C24.2231 10.2708 24.1131 10.2745 24.014 10.2158C23.3131 9.8121 22.5864 9.98091 21.8855 10.1717C21.5112 10.2708 21.3497 10.1424 21.2543 9.83412C21.192 9.62495 21.1479 9.4121 21.1222 9.19559C21.0745 8.83596 21.3754 8.75889 21.5993 8.74788C22.2782 8.71486 22.9718 8.58275 23.6617 8.90935Z" fill="black"/>
</g>
</g>
<defs>
<clipPath id="clip0_466_473">
<path d="M0.296875 16C0.296875 7.16344 7.46032 0 16.2969 0C25.1334 0 32.2969 7.16344 32.2969 16C32.2969 24.8366 25.1334 32 16.2969 32C7.46032 32 0.296875 24.8366 0.296875 16Z" fill="white"/>
</clipPath>
</defs>
</svg>
